<svg xmlns="http://www.w3.org/2000/svg"  viewBox="0 0 293917 333334" shape-rendering="geometricPrecision" text-rendering="geometricPrecision" image-rendering="optimizeQuality" fill-rule="evenodd" clip-rule="evenodd"><path fill="#e44d26" d="M293917 0l-26776 299966-120362 33368-120031-33322L0 0z"/><path fill="#f16529" d="M146958 307828l97259-26963 22881-256335H146958z"/><path d="M94906 98121h52053V61326H54694l880 9871 9044 101398h82341v-36795H98269l-3363-37679zm8293 92873H66262l5154 57774 75373 20922 169-46v-38283l-161 43-40979-11065-2620-29346z" fill="#ebebeb"/><path d="M146832 172596h45310l-4272 47721-41039 11076v38280l75433-20905 553-6217 8648-96870 898-9881h-85530v36795zm0-74564v90h88878l737-8270 1678-18654 879-9871h-92172v36707-1z" fill="#fff"/></svg>