<svg xmlns="http://www.w3.org/2000/svg" viewBox="0 0 245841 333333" shape-rendering="geometricPrecision" text-rendering="geometricPrecision" image-rendering="optimizeQuality" fill-rule="evenodd" clip-rule="evenodd"><defs><style>.fil0{fill:#5382a1}.fil1{fill:#e76f00}</style></defs><g id="Layer_x0020_1"><path class="fil0" d="M79176 257785s-12738 7407 9065 9914c26414 3013 39914 2581 69023-2928 0 0 7653 4798 18341 8955-65254 27967-147682-1620-96429-15941zM71202 221290s-14287 10576 7532 12833c28217 2911 50500 3149 89058-4276 0 0 5333 5407 13719 8364-78896 23070-166771 1819-110309-16920z"/><path class="fil1" d="M138422 159383c16079 18511-4224 35169-4224 35169s40826-21075 22077-47467c-17512-24612-30941-36841 41758-79004 0 0-114113 28500-59611 91301z"/><path class="fil0" d="M224726 284778s9426 7767-10382 13776c-37665 11410-156767 14856-189852 454-11894-5174 10410-12354 17426-13861 7317-1587 11498-1291 11498-1291-13226-9318-85493 18296-36707 26204 133044 21576 242528-9716 208018-25282zM85302 183478s-60583 14390-21454 19615c16521 2212 49456 1711 80134-859 25072-2115 50247-6612 50247-6612s-8841 3786-15237 8153c-61520 16180-180367 8653-146153-7897 28935-13987 52462-12400 52462-12400zM193980 244225c62538-32498 33623-63727 13441-59520-4947 1030-7152 1922-7152 1922s1836-2877 5344-4122c39928-14037 70635 41401-12889 63358 0 1 968-864 1257-1638z"/><path class="fil1" d="M156275 0s34635 34646-32850 87923c-54116 42737-12340 67104-22 94945-31588-28500-54769-53589-39217-76940C107012 71652 170250 55034 156276-1z"/><path class="fil0" d="M91447 332285c60029 3843 152211-2132 154394-30537 0 0-4197 10768-49611 19319-51236 9642-114429 8517-151909 2337 1-1 7673 6350 47126 8880z"/></g></svg>