<svg xmlns="http://www.w3.org/2000/svg" viewBox="0 0 329691 333333" shape-rendering="geometricPrecision" text-rendering="geometricPrecision" image-rendering="optimizeQuality" fill-rule="evenodd" clip-rule="evenodd"><defs><linearGradient id="a" gradientUnits="userSpaceOnUse" x1="-7872.83" y1="12038.6" x2="249919" y2="234352"><stop offset="0" stop-color="#5a9fd4"/><stop offset="1" stop-color="#306998"/></linearGradient><linearGradient id="b" gradientUnits="userSpaceOnUse" x1="301160" y1="344600" x2="115859" y2="76401.9"><stop offset="0" stop-color="#ffd43b"/><stop offset="1" stop-color="#ffe873"/></linearGradient></defs><path d="M162882 3c-13594 64-26577 1223-38000 3244-33652 5946-39761 18389-39761 41338v30307h79522v10102H55277c-23111 0-43349 13891-49679 40318-7301 30291-7625 49192 0 80820 5653 23542 19153 40318 42265 40318h27341v-36333c0-26247 22709-49400 49679-49400h79429c22111 0 39761-18205 39761-40411V44584c0-21552-18181-37741-39761-41338C190652 973 176477-61 162883 2zm-43005 24376c8213 0 14922 6818 14922 15200 0 8352-6709 15107-14922 15107-8243 0-14922-6755-14922-15107 0-8383 6679-15200 14922-15200z" fill="url(#a)"/><path d="M253990 84994v35313c0 27377-23211 50420-49679 50420h-79429c-21758 0-39761 18621-39761 40411v75722c0 21552 18740 34227 39761 40411 25172 7402 49311 8739 79429 0 20020-5796 39761-17463 39761-40411v-30307h-79430v-10102h119192c23111 0 31723-16121 39760-40318 8303-24910 7950-48865 0-80820-5711-23008-16620-40318-39760-40318h-29844zm-44674 191762c8243 0 14922 6754 14922 15107 0 8382-6679 15200-14922 15200-8215 0-14922-6818-14922-15200 0-8354 6708-15107 14922-15107z" fill="url(#b)"/></svg>