<svg xmlns="http://www.w3.org/2000/svg" viewBox="0 0 312711 333334" shape-rendering="geometricPrecision" text-rendering="geometricPrecision" image-rendering="optimizeQuality" fill-rule="evenodd" clip-rule="evenodd"><path d="M68837 154613h175991v-53325h-56043c-5874 0-14081-3184-17956-7059-3875-3874-6250-10868-6250-16743V20725H22099c-500 0-875 250-1125 500-375 250-500 625-500 1125v288760c0 375 250 875 500 1125 250 375 750 500 1125 500h221103c500 0 470-250 720-500 375-250 905-750 905-1125v-30272H68836c-11242 0-20498-9224-20498-20498v-85227c0-11274 9224-20499 20498-20499zm11376 73099l19303-1210c414 3125 1272 5515 2559 7139 2099 2650 5086 3983 8977 3983 2895 0 5132-674 6694-2037 1578-1363 2359-2941 2359-4734 0-1700-735-3232-2221-4580s-4948-2604-10387-3815c-8916-1992-15258-4657-19058-7982-3830-3309-5745-7537-5745-12685 0-3370 981-6557 2941-9559 1961-3018 4902-5377 8839-7093s9330-2574 16178-2574c8411 0 14814 1563 19226 4703 4412 3125 7032 8104 7874 14937l-19119 1134c-506-2987-1578-5163-3202-6511-1639-1363-3891-2037-6756-2037-2359 0-4152 506-5347 1501-1195 996-1792 2221-1792 3661 0 1042 490 1976 1455 2819 935 873 3202 1670 6787 2420 8885 1915 15243 3861 19073 5821 3845 1961 6648 4382 8395 7292 1746 2896 2620 6143 2620 9743 0 4213-1164 8104-3493 11674-2344 3554-5592 6266-9789 8104-4182 1838-9452 2757-15825 2757-11183 0-18935-2160-23240-6465s-6741-9774-7307-16408zm126967 12118c2528 1761 4182 2880 4963 3324 1149 659 2727 1425 4688 2298l-5622 11383c-2834-1379-5653-3003-8426-4902-2788-1900-4734-3324-5837-4274-4489 1946-10111 2926-16882 2926-10004 0-17893-2604-23669-7813-6832-6159-10249-14814-10249-25967 0-10831 2987-19241 8962-25247 5974-5990 14308-8993 25032-8993 10923 0 19348 2926 25293 8794 5944 5852 8916 14247 8916 25155 0 9713-2390 17480-7170 23317zm-15580-10433c1624-2896 2436-7231 2436-13007 0-6633-1241-11367-3707-14217-2482-2834-5883-4259-10233-4259-4060 0-7338 1455-9850 4351-2528 2895-3784 7430-3784 13589 0 7185 1226 12225 3677 15120 2467 2895 5837 4350 10111 4350 1379 0 2681-138 3906-398-1716-1655-4412-3202-8104-4672l3187-7307c1807 322 3217 735 4213 1210 1011 475 2972 1731 5898 3769 689 475 1440 965 2252 1471zm32322-45729h20314v49635h31804v16178h-52117v-65813zm41348-29055h26942c11275 0 20498 9254 20498 20499v85227c0 11244-9254 20498-20498 20498h-26942v36748c0 4374-1750 8249-4624 11124-2875 2875-6749 4624-11124 4624H15748c-4374 0-8249-1750-11124-4624C1749 325834 0 321960 0 317585V15872c0-4374 1750-8249 4624-11124C7499 1873 11498 124 15748 124h159282c375-125 750-125 1125-125 1750 0 3500 750 4749 1875h250c250 125 375 250 625 500l81367 82367c1375 1375 2375 3250 2375 5374 0 625-125 1125-250 1750v62747zm-82116-78746V24247l58119 58869h-50870c-2000 0-3750-875-5125-2125-1250-1250-2124-3125-2124-5124z"/></svg>