<svg xmlns="http://www.w3.org/2000/svg" viewBox="0 0 333334 333334" shape-rendering="geometricPrecision" text-rendering="geometricPrecision" image-rendering="optimizeQuality" fill-rule="evenodd" clip-rule="evenodd"><path d="M0 166667V0h333334v333334H0m0-166667z" fill="#007acc"/><path d="M73084 167250v13583h43334v123334h30750V180833h43333v-13333c0-7500 0-13583-333-13750 0-250-26417-333-58500-333l-58334 250v13667l-250-83zm194750-13917c8500 2000 15000 5833 20833 11917 3083 3333 7667 9167 8000 10667 0 500-14417 10250-23167 15667-333 250-1667-1167-3000-3333-4333-6167-8750-8833-15667-9333-10000-667-16667 4583-16667 13333 0 2667 500 4167 1500 6333 2250 4583 6417 7333 19333 13000 23833 10250 34167 17000 40417 26667 7083 10833 8667 27833 3917 40584-5333 13917-18333 23333-36917 26417-5833 1000-19167 833-25417-250-13333-2500-26083-9167-33917-17750-3083-3333-9000-12250-8667-12833l3167-2000 12500-7250 9417-5500 2167 2917c2750 4333 8917 10167 12500 12167 10833 5583 25333 4833 32500-1667 3083-2833 4417-5833 4417-10000 0-3833-583-5583-2500-8500-2667-3667-8000-6667-23000-13333-17250-7333-24583-12000-31417-19167-3917-4333-7500-11083-9167-16667-1250-4833-1667-16667-500-21417 3583-16667 16167-28333 34167-31667 5833-1167 19583-667 25333 833l-167 167z" fill="#fff"/></svg>